<svg width="32" height="21" viewBox="0 0 32 21" fill="none" xmlns="http://www.w3.org/2000/svg">
<g clip-path="url(#clip0)">
<path d="M3 0H7V2H3V0Z" fill="black"/>
<path fill-rule="evenodd" clip-rule="evenodd" d="M3.75 0.677419H6.875V1.35484H3.75V0.677419ZM3.125 1.35484V0H7.5V1.35484H30V21H0V1.35484H3.125ZM7.5 2.70968H3.125H1.25V19.6452H28.75V2.70968H7.5ZM6.25 5.41935V16.9355H7.5V5.41935H6.25Z" fill="black"/>
<path d="M25.9999 11C25.9999 14.4978 23.1644 17.3333 19.6666 17.3333C16.1688 17.3333 13.3333 14.4978 13.3333 11C13.3333 7.50221 16.1688 4.66667 19.6666 4.66667C23.1644 4.66667 25.9999 7.50221 25.9999 11Z" fill="white"/>
<path fill-rule="evenodd" clip-rule="evenodd" d="M19.6666 16C22.428 16 24.6666 13.7614 24.6666 11C24.6666 8.23861 22.428 6.00001 19.6666 6.00001C16.9052 6.00001 14.6666 8.23861 14.6666 11C14.6666 13.7614 16.9052 16 19.6666 16ZM19.6666 17.3333C23.1644 17.3333 25.9999 14.4978 25.9999 11C25.9999 7.50221 23.1644 4.66667 19.6666 4.66667C16.1688 4.66667 13.3333 7.50221 13.3333 11C13.3333 14.4978 16.1688 17.3333 19.6666 17.3333Z" fill="black"/>
<path fill-rule="evenodd" clip-rule="evenodd" d="M19.3333 8.00001C17.8605 8.00001 16.6666 9.19394 16.6666 10.6667H15.3333C15.3333 8.45754 17.1241 6.66667 19.3333 6.66667V8.00001Z" fill="black"/>
</g>
<defs>
<clipPath id="clip0">
<rect width="32" height="20.6667" fill="white"/>
</clipPath>
</defs>
</svg>
