<svg width="32" height="20" viewBox="0 0 32 20" fill="none" xmlns="http://www.w3.org/2000/svg">
<g clip-path="url(#clip0)">
<path d="M25.8246 10.386C25.8246 13.3315 23.4368 15.7193 20.4913 15.7193C17.5458 15.7193 15.158 13.3315 15.158 10.386C15.158 7.44044 17.5458 5.05263 20.4913 5.05263C23.4368 5.05263 25.8246 7.44044 25.8246 10.386Z" fill="white"/>
<path fill-rule="evenodd" clip-rule="evenodd" d="M22.7369 14.5965C25.0623 14.5965 26.9474 12.7113 26.9474 10.386C26.9474 8.06057 25.0623 6.17543 22.7369 6.17543C20.4115 6.17543 18.5264 8.06057 18.5264 10.386C18.5264 12.7113 20.4115 14.5965 22.7369 14.5965ZM22.7369 15.7193C25.6824 15.7193 28.0702 13.3315 28.0702 10.386C28.0702 7.44044 25.6824 5.05263 22.7369 5.05263C19.7914 5.05263 17.4036 7.44044 17.4036 10.386C17.4036 13.3315 19.7914 15.7193 22.7369 15.7193Z" fill="black"/>
<path fill-rule="evenodd" clip-rule="evenodd" d="M22.4561 7.85965C21.2159 7.85965 20.2105 8.86507 20.2105 10.1053H19.0876C19.0876 8.24495 20.5957 6.73685 22.4561 6.73685V7.85965Z" fill="black"/>
<path fill-rule="evenodd" clip-rule="evenodd" d="M5.61404 6.17544V7.29825H4.49123V6.17544H0V5.05263H4.49123V3.92982H5.61404V5.05263H12.3509V6.17544H5.61404ZM10.1053 10.6667V11.7895H8.98246V10.6667H0V9.54386H8.98246V8.42105H10.1053V9.54386H12.3509V10.6667H10.1053ZM3.36842 16.2807V15.1579H12.3509V14.0351H3.36842V12.9123H2.24561V14.0351H0V15.1579H2.24561V16.2807H3.36842Z" fill="black"/>
<path fill-rule="evenodd" clip-rule="evenodd" d="M10.6666 1.12281H7.29823V0H10.6666V1.12281ZM7.29823 1.12281H31.4386H32V1.68421V18.5263V19.0877H31.4386H4.49121V17.9649H30.8772V2.24561H4.49121V1.12281H7.29823Z" fill="black"/>
</g>
<defs>
<clipPath id="clip0">
<rect width="32" height="19.0877" fill="white"/>
</clipPath>
</defs>
</svg>
