<svg width="32" height="32" viewBox="0 0 32 32" fill="none" xmlns="http://www.w3.org/2000/svg">
<path fill-rule="evenodd" clip-rule="evenodd" d="M30.6518 16.6667C30.3131 24.2365 24.2365 30.3131 16.6667 30.6518V29.3333H15.3333V30.6518C7.76353 30.3131 1.68686 24.2365 1.34821 16.6667H2.66667V15.3333H1.34821C1.68686 7.76353 7.76353 1.68685 15.3333 1.34821V2.66667H16.6667V1.34821C24.2365 1.68685 30.3131 7.7636 30.6518 15.3333H29.3333V16.6667H30.6518ZM32 16C32 24.8365 24.8365 32 16 32C7.16347 32 0 24.8365 0 16C0 7.16347 7.16347 0 16 0C24.8365 0 32 7.16347 32 16ZM18.0947 18.0947L23.7515 8.66667L14.3235 14.3235H14.3235L8.66667 23.7516L18.0947 18.0947ZM16.6667 16C16.6667 16.3682 16.3682 16.6667 16 16.6667C15.6318 16.6667 15.3333 16.3682 15.3333 16C15.3333 15.6318 15.6318 15.3333 16 15.3333C16.3682 15.3333 16.6667 15.6318 16.6667 16Z" fill="black"/>
</svg>
