<svg width="119" height="18" viewBox="0 0 119 18" fill="none" xmlns="http://www.w3.org/2000/svg">
<path d="M3.192 6.048H0.056V4.2H8.596V6.048H5.46V14H3.192V6.048ZM14.6479 14.168C13.8733 14.168 13.1219 14.0653 12.3939 13.86C11.6753 13.6453 11.0966 13.37 10.6579 13.034L11.4279 11.326C11.8479 11.634 12.3473 11.8813 12.9259 12.068C13.5046 12.2547 14.0833 12.348 14.6619 12.348C15.3059 12.348 15.7819 12.2547 16.0899 12.068C16.3979 11.872 16.5519 11.6153 16.5519 11.298C16.5519 11.0647 16.4586 10.8733 16.2719 10.724C16.0946 10.5653 15.8613 10.4393 15.5719 10.346C15.2919 10.2527 14.9093 10.15 14.4239 10.038C13.6773 9.86067 13.0659 9.68333 12.5899 9.506C12.1139 9.32867 11.7033 9.044 11.3579 8.652C11.0219 8.26 10.8539 7.73733 10.8539 7.084C10.8539 6.51467 11.0079 6.00133 11.3159 5.544C11.6239 5.07733 12.0859 4.70867 12.7019 4.438C13.3273 4.16733 14.0879 4.032 14.9839 4.032C15.6093 4.032 16.2206 4.10667 16.8179 4.256C17.4153 4.40533 17.9379 4.62 18.3859 4.9L17.6859 6.622C16.7806 6.10867 15.8753 5.852 14.9699 5.852C14.3353 5.852 13.8639 5.95467 13.5559 6.16C13.2573 6.36533 13.1079 6.636 13.1079 6.972C13.1079 7.308 13.2806 7.56 13.6259 7.728C13.9806 7.88667 14.5173 8.04533 15.2359 8.204C15.9826 8.38133 16.5939 8.55867 17.0699 8.736C17.5459 8.91333 17.9519 9.19333 18.2879 9.576C18.6333 9.95867 18.8059 10.4767 18.8059 11.13C18.8059 11.69 18.6473 12.2033 18.3299 12.67C18.0219 13.1273 17.5553 13.4913 16.9299 13.762C16.3046 14.0327 15.5439 14.168 14.6479 14.168ZM26.5346 10.528V14H24.2666V10.5L20.4726 4.2H22.8806L25.4986 8.554L28.1166 4.2H30.3426L26.5346 10.528ZM39.1697 8.946H41.2417V12.922C40.7097 13.3233 40.0937 13.6313 39.3937 13.846C38.6937 14.0607 37.989 14.168 37.2797 14.168C36.2624 14.168 35.3477 13.9533 34.5357 13.524C33.7237 13.0853 33.0844 12.4833 32.6177 11.718C32.1604 10.9433 31.9317 10.0707 31.9317 9.1C31.9317 8.12933 32.1604 7.26133 32.6177 6.496C33.0844 5.72133 33.7284 5.11933 34.5497 4.69C35.371 4.25133 36.295 4.032 37.3217 4.032C38.1804 4.032 38.9597 4.17667 39.6597 4.466C40.3597 4.75533 40.9477 5.17533 41.4237 5.726L39.9677 7.07C39.2677 6.33267 38.423 5.964 37.4337 5.964C36.8084 5.964 36.253 6.09467 35.7677 6.356C35.2824 6.61733 34.9044 6.986 34.6337 7.462C34.363 7.938 34.2277 8.484 34.2277 9.1C34.2277 9.70667 34.363 10.248 34.6337 10.724C34.9044 11.2 35.2777 11.5733 35.7537 11.844C36.239 12.1053 36.7897 12.236 37.4057 12.236C38.059 12.236 38.647 12.096 39.1697 11.816V8.946ZM51.4825 11.9H46.9325L46.0645 14H43.7405L48.1085 4.2H50.3485L54.7305 14H52.3505L51.4825 11.9ZM50.7685 10.178L49.2145 6.426L47.6605 10.178H50.7685ZM66.4152 4.2V14H64.5532L59.6672 8.05V14H57.4272V4.2H59.3032L64.1752 10.15V4.2H66.4152ZM75.1039 14.168C74.1052 14.168 73.1999 13.9533 72.3879 13.524C71.5852 13.0853 70.9505 12.4833 70.4839 11.718C70.0265 10.9433 69.7979 10.0707 69.7979 9.1C69.7979 8.12933 70.0265 7.26133 70.4839 6.496C70.9505 5.72133 71.5852 5.11933 72.3879 4.69C73.1999 4.25133 74.1099 4.032 75.1179 4.032C75.9672 4.032 76.7325 4.18133 77.4139 4.48C78.1045 4.77867 78.6832 5.208 79.1499 5.768L77.6939 7.112C77.0312 6.34667 76.2099 5.964 75.2299 5.964C74.6232 5.964 74.0819 6.09933 73.6059 6.37C73.1299 6.63133 72.7565 7 72.4859 7.476C72.2245 7.952 72.0939 8.49333 72.0939 9.1C72.0939 9.70667 72.2245 10.248 72.4859 10.724C72.7565 11.2 73.1299 11.5733 73.6059 11.844C74.0819 12.1053 74.6232 12.236 75.2299 12.236C76.2099 12.236 77.0312 11.8487 77.6939 11.074L79.1499 12.418C78.6832 12.9873 78.1045 13.4213 77.4139 13.72C76.7232 14.0187 75.9532 14.168 75.1039 14.168ZM91.3495 4.2V14H89.0815V9.982H84.6295V14H82.3615V4.2H84.6295V8.064H89.0815V4.2H91.3495ZM99.7021 14.168C98.3021 14.168 97.2101 13.7807 96.4261 13.006C95.6514 12.2313 95.2641 11.1253 95.2641 9.688V4.2H97.5321V9.604C97.5321 11.3587 98.2601 12.236 99.7161 12.236C100.425 12.236 100.967 12.026 101.34 11.606C101.713 11.1767 101.9 10.5093 101.9 9.604V4.2H104.14V9.688C104.14 11.1253 103.748 12.2313 102.964 13.006C102.189 13.7807 101.102 14.168 99.7021 14.168ZM111.631 10.15L110.315 11.522V14H108.061V4.2H110.315V8.778L114.655 4.2H117.175L113.115 8.568L117.413 14H114.767L111.631 10.15Z" fill="black"/>
</svg>
