<svg width="32" height="19" viewBox="0 0 32 19" fill="none" xmlns="http://www.w3.org/2000/svg">
<g clip-path="url(#clip0)">
<path fill-rule="evenodd" clip-rule="evenodd" d="M17.2426 1.67287L22.6667 1.40167V4H13.8065C14.4204 2.66035 15.7363 1.74818 17.2426 1.67287ZM12.3765 4C13.0626 1.91391 14.9656 0.451721 17.176 0.341199L22.6667 0.0666667L24 0V1.335V4V5.33333V7.61907L30.6667 5.71429L32 5.33333V6.72V15.5842V17L30.6667 16.5238L24 14.1429V17.3333V18.6667H22.6667H1.33333H0V17.3333V5.33333V4H1.33333H12.3765ZM22.6667 13.6667V8V5.33333H13.3838H12H1.33333V17.3333H22.6667V13.6667ZM24 12.7271L30.6667 15.108V7.101L24 9.00573V12.7271ZM25.3333 0H29.3333V1.33333H25.3333V0ZM11.3333 8.66667H4.66667V11.3333H11.3333V8.66667ZM4.66667 7.33333H3.33333V8.66667V11.3333V12.6667H4.66667H11.3333H12.6667V11.3333V8.66667V7.33333H11.3333H4.66667Z" fill="black"/>
</g>
<defs>
<clipPath id="clip0">
<rect width="32" height="18.6667" fill="white"/>
</clipPath>
</defs>
</svg>
