<svg width="32" height="27" viewBox="0 0 32 27" fill="none" xmlns="http://www.w3.org/2000/svg">
<g clip-path="url(#clip0)">
<path fill-rule="evenodd" clip-rule="evenodd" d="M22.8572 13.0612H1.9592V24.8163H22.8572V21.2245V15.6735V13.0612ZM24.1633 15.3003V13.0612V11.7551H22.8572H1.9592H0.653076V13.0612V24.8163V26.1224H1.9592H22.8572H24.1633V24.8163V21.691L30.6939 24.0233L32 24.4898V23.1029V14.4196V13.0612L30.6939 13.4344L24.1633 15.3003ZM24.1633 16.6587V20.3041L30.6939 22.6364V14.7928L24.1633 16.6587ZM11.7551 16.3265H5.2245V18.9388H11.7551V16.3265ZM5.2245 15.0204H3.91838V16.3265V18.9388V20.2449H5.2245H11.7551H13.0612V18.9388V16.3265V15.0204H11.7551H5.2245Z" fill="black"/>
<path fill-rule="evenodd" clip-rule="evenodd" d="M12.0715 10.449C12.6966 9.51504 13.0612 8.3919 13.0612 7.18367C13.0612 3.93759 10.4298 1.30612 7.18367 1.30612C3.93759 1.30612 1.30612 3.93759 1.30612 7.18367C1.30612 8.3919 1.67071 9.51504 2.29587 10.449H0.783295C0.282486 9.46932 0 8.35945 0 7.18367C0 3.21624 3.21624 0 7.18367 0C11.1511 0 14.3673 3.21624 14.3673 7.18367C14.3673 8.35945 14.0848 9.46932 13.5841 10.449H12.0715Z" fill="black"/>
<path fill-rule="evenodd" clip-rule="evenodd" d="M23.5102 7.18367C23.5102 8.3919 23.1456 9.51504 22.5205 10.449H24.033C24.5338 9.46932 24.8163 8.35945 24.8163 7.18367C24.8163 3.21624 21.6001 0 17.6326 0C15.9812 0 14.4599 0.557274 13.2465 1.49403C13.655 1.6877 13.9858 2.01851 14.1795 2.42699C15.1489 1.72198 16.3422 1.30612 17.6326 1.30612C20.8788 1.30612 23.5102 3.93759 23.5102 7.18367ZM10.449 7.16167C10.449 7.16898 10.449 7.17636 10.449 7.18367C10.449 7.19099 10.449 7.19837 10.449 7.20568V7.16167Z" fill="black"/>
</g>
<defs>
<clipPath id="clip0">
<rect width="32" height="26.1224" fill="white"/>
</clipPath>
</defs>
</svg>
