<svg width="48" height="28" viewBox="0 0 48 28" fill="none" xmlns="http://www.w3.org/2000/svg">
<path fill-rule="evenodd" clip-rule="evenodd" d="M25.8639 2.5093L34 2.1025V6H20.7097C21.6306 3.99053 23.6045 2.62227 25.8639 2.5093ZM18.5647 6C19.5939 2.87086 22.4484 0.677582 25.764 0.511799L34 0.1L36 0V2.0025V6V8V11.4286L46 8.57143L48 8V10.08V23.3763V25.5L46 24.7857L36 21.2143V26V28H34H2H0V26V8V6H2H18.5647ZM34 20.5V12V8H20.0757H18H2V26H34V20.5ZM36 19.0906L46 22.662V10.6515L36 13.5086V19.0906ZM38 0H44V2H38V0ZM17 13H7V17H17V13ZM7 11H5V13V17V19H7H17H19V17V13V11H17H7Z" fill="black"/>
</svg>
